<svg xmlns="http://www.w3.org/2000/svg" version="1.1" xmlns:xlink="http://www.w3.org/1999/xlink" xmlns:svgjs="http://svgjs.com/svgjs" width="512" height="512" x="0" y="0" viewBox="0 0 512 512" style="enable-background:new 0 0 512 512" xml:space="preserve" class=""><g><path d="M255 16C114.39 16 0 116.928 0 241c0 52.412 20.742 103.198 58.491 143.452 7.471 30.806-1.597 63.442-24.097 85.942C24.986 479.803 31.639 496 45 496c42.744 0 83.95-16.743 114.565-46.274C189.858 460.536 221.909 466 255 466c140.61 0 257-100.928 257-225S395.61 16 255 16zM137 286c-24.814 0-45-20.186-45-45s20.186-45 45-45 45 20.186 45 45-20.186 45-45 45zm120 0c-24.814 0-45-20.186-45-45s20.186-45 45-45 45 20.186 45 45-20.186 45-45 45zm120 0c-24.814 0-45-20.186-45-45s20.186-45 45-45 45 20.186 45 45-20.186 45-45 45z" fill="#ffffff" data-original="#000000" class=""></path></g></svg>