<svg xmlns="http://www.w3.org/2000/svg" viewBox="0 0 500 500"><g id="freepik--background-simple--inject-32"><path d="M258,148c-58.63,16.77-230.2-1.32-191.22,111.1,32.62,94.08,155.56,89.87,215.62,73.25,78.14-21.63,141.47-107.39,129.14-202-5.3-40.71-30.93-80.19-66.85-56.38-12.12,8-22,32.84-34.07,43.62C295.21,131.32,277.66,142.34,258,148Z" style="fill:#0066FF"></path><path d="M258,148c-58.63,16.77-230.2-1.32-191.22,111.1,32.62,94.08,155.56,89.87,215.62,73.25,78.14-21.63,141.47-107.39,129.14-202-5.3-40.71-30.93-80.19-66.85-56.38-12.12,8-22,32.84-34.07,43.62C295.21,131.32,277.66,142.34,258,148Z" style="fill:#fff;opacity:0.9"></path></g><g id="freepik--Shadow--inject-32"><ellipse id="freepik--path--inject-32" cx="250" cy="416.24" rx="193.89" ry="11.32" style="fill:#f5f5f5"></ellipse></g><g id="freepik--Character--inject-32"><path d="M289.63,110.12c.1-9.52-8-21.71-24.51-17.25-15,4-10.68,27.63-29,21.34S200.38,114.27,198,135s15.06,42.82,31.75,36.28,26.48-25,29.13-27.94c8.1,1,19.84,6.91,31.47-9.07C299.6,121.53,289.63,110.12,289.63,110.12Z" style="fill:#263238"></path><path d="M262.46,111.57c-2.73,3.51-7.07,4.71-9.69,2.67s-2.52-6.53.21-10,7.06-4.71,9.68-2.67S265.19,108.06,262.46,111.57Z" style="fill:#0066FF"></path><path d="M250.32,71.18,250,74.36A3.71,3.71,0,0,1,248,77.19l-4.93,2.71a7,7,0,0,1-6.38.17l-1.25-.61c.26-5.32,4.46-10.88,4.46-10.88l1-1.72a3.11,3.11,0,0,1,4.25-1.18l3.43,2A3.59,3.59,0,0,1,250.32,71.18Z" style="fill:#7f3e3b"></path><path d="M236.18,153.23l-.57-.6-.5-.55-1-1.07-1.84-2.12c-1.19-1.42-2.36-2.85-3.49-4.3-2.28-2.88-4.48-5.81-6.55-8.86s-4.06-6.14-5.88-9.39c-.47-.8-.92-1.61-1.35-2.45l-1.32-2.47-1.23-2.54-.31-.63-.17-.37-.34-.79a13.3,13.3,0,0,1-.78-3,16.58,16.58,0,0,1,.1-4.89,24.43,24.43,0,0,1,.91-3.7,39.06,39.06,0,0,1,2.55-5.87,87.55,87.55,0,0,1,6-9.66c2.09-3,4.26-5.87,6.47-8.69,1.11-1.41,2.21-2.81,3.35-4.19s2.24-2.71,3.49-4.18L245.2,83.29c-1,1.08-2.2,2.36-3.26,3.59s-2.15,2.51-3.19,3.78c-2.06,2.57-4,5.19-5.82,7.85a62.54,62.54,0,0,0-4.66,8,23,23,0,0,0-1.4,3.63,6.91,6.91,0,0,0-.26,1.31c0,.31,0,.46,0,.25a2.16,2.16,0,0,0-.13-.57,1.8,1.8,0,0,0-.08-.21l.12.21.29.51,1.15,2c.83,1.33,1.61,2.68,2.53,4a88.63,88.63,0,0,0,5.75,7.6c2,2.45,4.21,4.84,6.47,7.11q1.71,1.68,3.47,3.3c.59.52,1.17,1.06,1.76,1.56l.88.74.43.35.37.28Z" style="fill:#0066FF"></path><path d="M247.91,416.23c8,0,9.31-.12,13.78-.27,3.83-.14,4.75.34,7.82.27,2.57-.06,2.48-2.52,1.68-5.35-.39-1.42-1-3.16-1.55-5.45H257.55c-1.64,3.13-6.84,5.48-11.32,6.08C242,412.09,244.74,416.23,247.91,416.23Z" style="fill:#0066FF"></path><path d="M127.94,399.05c7.57,2,10.24,2.18,14.53,3.16,3.68.83,3.57,1.52,7.24,2.57,2.43.7,3.68-1.91,3.47-4.19a38.13,38.13,0,0,1-.21-6.09l-9.72-4c-2.91,2.76-9.51,5.11-15.36,4C123.7,393.67,124.92,398.25,127.94,399.05Z" style="fill:#0066FF"></path><path d="M219.54,205.34s-20.1,46.13-31.15,80.14c-13.5,30.76-45.3,104.68-45.3,104.68-.52,1.64,8,4.65,9.88,4.34,0,0,40.43-52.2,55-100.83,37.8-47.42,48.92-85.49,48.92-85.49Z" style="fill:#263238"></path><path d="M235.65,230.6c-5.54,6.07-9.45,27.18-11.44,41a317.4,317.4,0,0,0,18.68-31.12C242.33,235.29,240.07,231.5,235.65,230.6Z" style="opacity:0.2"></path><path d="M230.73,206.19s-1.43,64.08,4.14,95.64c5.86,33.15,24,81.84,22.68,103.6,1.87,1.08,8.42,1.15,12.09,0,0,0,6.26-73.31-12.57-104.84,4.08-31.57,14.94-72.45,5.29-92Z" style="fill:#263238"></path><path d="M256.64,400.9a32.78,32.78,0,0,1-.42,4.47.92.92,0,0,0,.78,1.09c4.42.71,10.82-.31,12.86-.68a.91.91,0,0,0,.74-.77l.66-4.18a.93.93,0,0,0-.94-1.07l-12.77.24A.92.92,0,0,0,256.64,400.9Z" style="fill:#263238"></path><path d="M256.64,400.9a32.78,32.78,0,0,1-.42,4.47.92.92,0,0,0,.78,1.09c4.42.71,10.82-.31,12.86-.68a.91.91,0,0,0,.74-.77l.66-4.18a.93.93,0,0,0-.94-1.07l-12.77.24A.92.92,0,0,0,256.64,400.9Z" style="fill:#fff;opacity:0.1"></path><path d="M144.07,385.43c-.55,1-1.54,2.86-2.32,4.19a.93.93,0,0,0,.33,1.27A64.64,64.64,0,0,0,153,395.55a.92.92,0,0,0,1-.32l2.59-3.42a.93.93,0,0,0-.33-1.4l-11-5.38A.91.91,0,0,0,144.07,385.43Z" style="fill:#263238"></path><path d="M144.07,385.43c-.55,1-1.54,2.86-2.32,4.19a.93.93,0,0,0,.33,1.27A64.64,64.64,0,0,0,153,395.55a.92.92,0,0,0,1-.32l2.59-3.42a.93.93,0,0,0-.33-1.4l-11-5.38A.91.91,0,0,0,144.07,385.43Z" style="fill:#fff;opacity:0.1"></path><path d="M228.08,151.05c-1.06,4.09-2.78,8.58-4.85,18.46-1.9,8.32-3.29,23-3.69,35.83,5.58,5,24.17,4.14,42.82,3.26.06-12.13,5-23.32,18.59-48.15a10,10,0,0,0-5.47-14.6c-1.62-.54-3.35-1.08-5.13-1.58a137.5,137.5,0,0,0-19-4.32c-2.11-.28-4.31-.51-6.42-.69A16.18,16.18,0,0,0,228.08,151.05Z" style="fill:#fff"></path><path d="M273.88,122.55c-3.05,5.75-7.63,16.5-4.58,21.48,0,0-8.74,2.83-22,10.45-2.4-5.92,3-14.77,3-14.77,7.32-.05,8.67-5.07,8.92-10Z" style="fill:#7f3e3b"></path><path d="M282.11,149.64c-2-4.49-11.69-10.18-13.81-9.57-3.09.89-29.05,65.34-23.3,120.61,1.82,17.41,37.14,12.09,50.92,31-3.75-21.77-25.52-80.07-22.86-98.09S285.53,157.21,282.11,149.64Z" style="fill:#0066FF"></path><path d="M267.89,125.47l-8.69,4.23a18.71,18.71,0,0,1-.43,3.45c2.72.22,7.16-1.78,8.26-4.4A9.42,9.42,0,0,0,267.89,125.47Z" style="opacity:0.2"></path><path d="M284.37,116.87c-6,8.39-8.35,12.06-15.64,14-11,3-20.18-5.58-16.86-15.43,3-8.86,12.28-21.09,23.16-19.72C285.75,97.09,290.36,108.48,284.37,116.87Z" style="fill:#7f3e3b"></path><path d="M287.64,109.31c-8.65-1.21-13.55,5-9.62,12.15C287.28,123,290.66,112.63,287.64,109.31Z" style="fill:#263238"></path><path d="M288.06,111c-9.52.76-14.73-14-25.36-12.7,2.93-4,14.5-7.22,20.28-2.66C290.42,101.51,288.06,111,288.06,111Z" style="fill:#263238"></path><path d="M261.71,107.5a25.35,25.35,0,0,1-5.63,3.17c.38,1.43,2.3,2,2.3,2Z" style="fill:#630f0f"></path><path d="M260.63,117.36a9.13,9.13,0,0,1-1.3-.58.24.24,0,0,1-.08-.34.28.28,0,0,1,.36-.09,7.15,7.15,0,0,0,6.21.4.26.26,0,0,1,.34.1.25.25,0,0,1-.13.33A7.49,7.49,0,0,1,260.63,117.36Z" style="fill:#263238"></path><path d="M281.1,125.91a7.09,7.09,0,0,1-5.73-.08c-2.17-1.11-1.12-3.8,1.27-5.29,2.15-1.33,5.87-2.36,7.19-.38S283.57,124.94,281.1,125.91Z" style="fill:#7f3e3b"></path><path d="M274.13,108.77a.43.43,0,0,1-.2-.33,3.72,3.72,0,0,0-1.95-2.92.47.47,0,0,1-.22-.65.55.55,0,0,1,.69-.23,4.62,4.62,0,0,1,2.51,3.67.51.51,0,0,1-.47.54A.5.5,0,0,1,274.13,108.77Z" style="fill:#263238"></path><path d="M260.89,100.58a.49.49,0,0,1-.28-.23.5.5,0,0,1,.23-.67,5.32,5.32,0,0,1,4.69-.25.47.47,0,0,1,.18.66.56.56,0,0,1-.71.21,4.25,4.25,0,0,0-3.71.24A.56.56,0,0,1,260.89,100.58Z" style="fill:#263238"></path><path d="M267.82,108.47l2.15,3.29S270.6,108.28,267.82,108.47Z" style="fill:#263238"></path><path d="M261.37,105.05l-3.65-.66S260.62,102.45,261.37,105.05Z" style="fill:#263238"></path><rect x="288.53" y="222.29" width="16.94" height="10" rx="1.77" transform="translate(-72.16 167.36) rotate(-28.21)" style="fill:#263238"></rect><path d="M293.54,233.69l-2.45-2.07a3.72,3.72,0,0,1-1.31-3.15l.46-5.62a7,7,0,0,1,3.38-5.4l1.2-.71c4.3,3.15,6.61,9.72,6.61,9.72l.87,1.8a3.11,3.11,0,0,1-1.36,4.2l-3.54,1.76A3.57,3.57,0,0,1,293.54,233.69Z" style="fill:#7f3e3b"></path><path d="M281.64,148.93c.55.76,1,1.38,1.44,2.06l1.33,2c.88,1.33,1.73,2.67,2.57,4,1.66,2.7,3.26,5.45,4.77,8.28s2.93,5.76,4.23,8.81c.66,1.51,1.25,3.11,1.82,4.7.28.81.53,1.66.79,2.48a25.39,25.39,0,0,1,.74,2.87c.38,1.89.58,3.53.76,5.17s.29,3.22.39,4.78c.2,3.14.32,6.23.39,9.3.15,6.15.15,12.19.05,18.34l-12.89.14c-.28-5.87-.66-11.85-1.17-17.7-.26-2.93-.55-5.85-.92-8.69-.18-1.43-.38-2.83-.61-4.18a36.54,36.54,0,0,0-.79-3.71,12.49,12.49,0,0,0-.52-1.45c-.25-.6-.47-1.18-.73-1.78-.54-1.19-1.09-2.38-1.73-3.58-1.25-2.39-2.63-4.79-4.16-7.15s-3.12-4.7-4.8-7c-.84-1.15-1.7-2.28-2.57-3.4l-1.31-1.66c-.43-.53-.9-1.12-1.27-1.55Z" style="fill:#0066FF"></path><path d="M250.1,140.69C239.38,153.45,224,162,219.54,264.91c-12.82-4.05-17.72,6.47-31.63,3.27,2.54-7.5,23.63-50.78,29-74.54s6-47.26,19.91-55.64c2.51-1.51,8.54-.73,12.15-.07A1.75,1.75,0,0,1,250.1,140.69Z" style="fill:#0066FF"></path><path d="M235.35,207.17l-5.15-.51c-.64-.07-1.18.23-1.19.67l-.1,2.62c0,.44.49.85,1.13.91l5.15.52c.65.06,1.18-.24,1.2-.68l.09-2.62C236.5,207.64,236,207.24,235.35,207.17Z" style="fill:#0066FF"></path><path d="M282.93,128.25c-3.56,2.67-8.06,2.67-10.05,0s-.7-7,2.86-9.63,8.06-2.66,10.05,0S286.49,125.59,282.93,128.25Z" style="fill:#0066FF"></path><path d="M282.43,127.57c-2.75,2.06-5.84,2.58-6.89,1.17s.32-4.22,3.08-6.28,5.84-2.58,6.89-1.17S285.19,125.51,282.43,127.57Z" style="fill:#fff"></path><path d="M282.68,117.94c5.68-2.91,6.25-12.34,5.24-15.72a10.26,10.26,0,0,1,2.94,5.79,12.94,12.94,0,0,1-4.58,12.56C284.51,120.43,282.68,117.94,282.68,117.94Z" style="fill:#0066FF"></path><path d="M275.23,233.14a27.43,27.43,0,0,1-3.5-.23c-2.94-.38-12.68-2.15-14.62-8.82a8.91,8.91,0,0,1,.28-5.34c1.45-4.3,5.07-7.44,8.07-9.69a23.23,23.23,0,0,1,3.39-1.95c2.68-1.37,5.73-2.92,6.28-5.45,1.05-4.87-6.2-8.73-10.1-10.8l-.53-.28c-1.1-.59-2.26-1.15-3.39-1.7-4.15-2-8.45-4.08-11.12-8s-3.32-9-2.25-15.81a56.7,56.7,0,0,1,9.34-23.86,52.76,52.76,0,0,1,15.49-13.9.28.28,0,0,1,.38.09.26.26,0,0,1-.09.37,52,52,0,0,0-15.33,13.76,56.07,56.07,0,0,0-9.25,23.62c-1.05,6.69-.34,11.73,2.16,15.43s6.82,5.87,10.9,7.84c1.14.55,2.31,1.12,3.42,1.71l.52.28c4,2.14,11.52,6.12,10.38,11.39-.61,2.79-3.77,4.4-6.57,5.83a23.32,23.32,0,0,0-3.3,1.89c-2.94,2.21-6.49,5.27-7.89,9.44a8.59,8.59,0,0,0-.27,5c1.85,6.35,11.31,8.06,14.17,8.43A25,25,0,0,0,288.27,229a.28.28,0,0,1,.38.08.28.28,0,0,1-.09.38A24.94,24.94,0,0,1,275.23,233.14Z" style="fill:#263238"></path></g><g id="freepik--Notes--inject-32"><path d="M265.78,77.28l-4.66-1.68a.55.55,0,0,0-.73.52v8.21l-.14-.08a3.91,3.91,0,0,0-2.09-.18,4,4,0,0,0-1.93.84,1.69,1.69,0,0,0,.5,3,3.7,3.7,0,0,0,1.36.24,6,6,0,0,0,.73-.05,4.07,4.07,0,0,0,1.93-.85,1.88,1.88,0,0,0,.73-1.55V80l3.93,1.42a.55.55,0,0,0,.73-.51V77.79A.55.55,0,0,0,265.78,77.28Zm-.73,2.85-3.57-1.28v-2l3.57,1.29Z" style="fill:#263238"></path><path d="M313.1,83.57l-3.73-3.27a.54.54,0,0,0-.49-.11.55.55,0,0,0-.38.33l-1.13,2.88v0l-1.86,4.73a3.84,3.84,0,0,0-2-1.05c-1.65-.35-3.14.25-3.38,1.38a1.83,1.83,0,0,0,.64,1.7,3.94,3.94,0,0,0,1.88.94,4.36,4.36,0,0,0,.94.1,3.62,3.62,0,0,0,1.16-.18A1.89,1.89,0,0,0,306,89.85s0,0,0,0l2.08-5.3,3.14,2.75a.55.55,0,0,0,.49.12.55.55,0,0,0,.38-.33l1.13-2.9A.52.52,0,0,0,313.1,83.57ZM311.38,86l-2.86-2.5.72-1.82,2.85,2.5Z" style="fill:#263238"></path><path d="M315,109.43s0,0,0,0v-9.29a.55.55,0,0,0-.36-.5l-7-2.37a.52.52,0,0,0-.69.5v8a3.72,3.72,0,0,0-2.17-.25c-1.62.27-2.75,1.34-2.57,2.44a1.75,1.75,0,0,0,1.18,1.31,3.58,3.58,0,0,0,1.33.24,5.49,5.49,0,0,0,.7,0c1.57-.26,2.67-1.27,2.58-2.33V101.5l5.95,2v4.56l-.13-.07a3.79,3.79,0,0,0-2-.18c-1.62.26-2.75,1.33-2.57,2.43a1.78,1.78,0,0,0,1.18,1.32,3.49,3.49,0,0,0,1.32.24,4.34,4.34,0,0,0,.71-.06C314,111.5,315.08,110.49,315,109.43Zm-7-10.94,5.95,2v1.9l-5.95-2Z" style="fill:#263238"></path><path d="M290.37,74.74v0l-1.57-5.38L288,66.74a.47.47,0,0,0-.43-.34L281,66.12a.46.46,0,0,0-.39.18.43.43,0,0,0-.08.42l.75,2.58v0l1.23,4.24-.13,0a3.44,3.44,0,0,0-1.79.35,3.4,3.4,0,0,0-1.4,1.17,1.46,1.46,0,0,0,1.14,2.4h.28a3.55,3.55,0,0,0,1.51-.36,3.48,3.48,0,0,0,1.4-1.17,1.61,1.61,0,0,0,.23-1.47v0l-1.39-4.75,5.62.24,1.14,3.92-.13,0a3.44,3.44,0,0,0-1.79.35,3.48,3.48,0,0,0-1.4,1.17,1.46,1.46,0,0,0,1.15,2.4l.27,0a3.57,3.57,0,0,0,1.51-.37,3.34,3.34,0,0,0,1.4-1.17A1.61,1.61,0,0,0,290.37,74.74Zm-8.28-6-.47-1.63,5.61.24.48,1.63Z" style="fill:#263238"></path></g></svg>