<svg width="52" height="51" viewBox="0 0 52 51" fill="none" xmlns="http://www.w3.org/2000/svg">
<rect x="0.908447" width="50.6881" height="51" rx="25.3441" fill="#0066FF"/>
<path d="M43.6224 11.6166C42.8725 14.6403 39.0652 15.4346 36.0943 14.5791C33.1236 13.724 32.0851 15.7093 31.912 16.137C31.7391 16.5645 31.1621 17.4196 30.3256 17.4196C29.4892 17.4196 29.2874 16.7173 29.2874 16.2897C29.2874 15.8621 29.5758 15.3429 30.4411 14.9459C31.3064 14.5488 31.6958 13.8812 31.8606 12.7593C31.5861 13.6129 30.5985 14.1465 28.4043 14.1465C25.5953 14.1465 24.07 16.2047 23.4294 17.7808L19.6373 27.6118C19.393 28.2444 18.7869 28.6523 18.1451 28.5767C16.8183 28.4203 15.3034 28.6264 13.8023 29.2499C10.2064 30.7432 8.06571 34.044 9.02073 36.6226C9.97574 39.2014 13.6651 40.081 17.2607 38.5877C20.8565 37.0944 22.9972 33.7935 22.0422 31.215L22.0374 31.2022C21.6848 30.2558 21.6909 29.2021 22.054 28.2605L24.0152 23.176C24.0152 23.176 24.6736 21.7816 26.5388 21.7816C28.4043 21.7816 29.0625 23.234 31.4764 23.234C33.8903 23.234 35.3717 20.823 35.5362 19.6756C34.5367 20.5349 33.2672 20.2035 33.2672 19.0277C33.2672 18.432 33.593 17.6741 34.6488 17.6741C35.4315 17.6741 35.777 18.3053 37.2193 18.3053C41.7188 18.3054 44.2282 13.8462 43.6224 11.6166Z" fill="white"/>
</svg>
