<svg width="180" height="180" viewBox="0 0 180 180" fill="none" xmlns="http://www.w3.org/2000/svg">
<path d="M0 0H180V180H0V0Z" fill="#0066FF"/>
<path d="M151.682 41C149.019 51.6716 135.499 54.4752 124.949 51.4559C114.4 48.4376 110.712 55.4448 110.097 56.954C109.483 58.4631 107.434 61.4811 104.464 61.4811C101.494 61.4811 100.777 59.0025 100.777 57.4932C100.777 55.984 101.801 54.1513 104.874 52.7502C107.947 51.3489 109.33 48.9927 109.915 45.0331C108.94 48.0455 105.433 49.929 97.6411 49.929C87.6659 49.929 82.2496 57.1931 79.9746 62.7559L66.5082 97.4534C65.6408 99.6862 63.4884 101.126 61.2095 100.859C56.4977 100.307 51.118 101.035 45.7874 103.235C33.0179 108.506 25.4161 120.156 28.8075 129.256C32.1989 138.358 45.3001 141.463 58.0686 136.192C70.8379 130.922 78.4399 119.271 75.0483 110.171L75.0315 110.125C73.7794 106.785 73.8008 103.066 75.0902 99.7432L82.0549 81.7977C82.0549 81.7977 84.3927 76.8764 91.0164 76.8764C97.6411 76.8764 99.9785 82.0026 108.551 82.0026C117.123 82.0026 122.383 73.4932 122.967 69.4435C119.418 72.4763 114.91 71.3066 114.91 67.1567C114.91 65.0544 116.067 62.3794 119.816 62.3794C122.595 62.3794 123.823 64.6072 128.944 64.6072C144.923 64.6074 153.834 48.8691 151.682 41Z" fill="white"/>
</svg>
