<svg width="60" height="56" viewBox="0 0 60 56" fill="none" xmlns="http://www.w3.org/2000/svg">
<path d="M0 0H60V56H0V0Z" fill="#0066FF" fill-opacity="0.85"/>
<path d="M46 41.22L35.2651 32.2998" stroke="white" stroke-width="2"/>
<path d="M38 25.5889C38 31.4369 33.299 36.1777 27.5 36.1777C21.701 36.1777 17 31.4369 17 25.5889C17 19.7408 21.701 15 27.5 15C33.299 15 38 19.7408 38 25.5889ZM19.1575 25.5889C19.1575 30.2353 22.8926 34.0019 27.5 34.0019C32.1074 34.0019 35.8425 30.2353 35.8425 25.5889C35.8425 20.9424 32.1074 17.1758 27.5 17.1758C22.8926 17.1758 19.1575 20.9424 19.1575 25.5889Z" fill="white"/>
</svg>
