<svg xmlns="http://www.w3.org/2000/svg" version="1.1" xmlns:xlink="http://www.w3.org/1999/xlink" xmlns:svgjs="http://svgjs.com/svgjs" width="512" height="512" x="0" y="0" viewBox="0 0 375 375" style="enable-background:new 0 0 512 512" xml:space="preserve" class=""><g><path d="M187.5 0C84.1 0 0 84.1 0 187.5S84.1 375 187.5 375 375 290.9 375 187.5 290.9 0 187.5 0zm0 337.5c-82.7 0-150-67.3-150-150s67.3-150 150-150 150 67.3 150 150-67.3 150-150 150z" fill="#ffffff" data-original="#000000" class=""></path><path d="M150 150 93.7 281.3 225 225l56.3-131.3L150 150zm37.5 56.3c-10.4 0-18.8-8.4-18.8-18.8s8.4-18.8 18.8-18.8 18.8 8.4 18.8 18.8-8.4 18.8-18.8 18.8z" fill="#ffffff" data-original="#000000" class=""></path></g></svg>