<svg xmlns="http://www.w3.org/2000/svg" version="1.1" xmlns:xlink="http://www.w3.org/1999/xlink" xmlns:svgjs="http://svgjs.com/svgjs" width="512" height="512" x="0" y="0" viewBox="0 0 682.667 682.667" style="enable-background:new 0 0 512 512" xml:space="preserve" class=""><g><defs><clipPath id="a" clipPathUnits="userSpaceOnUse"><path d="M0 512h512V0H0Z" fill="#ffffff" data-original="#000000" class=""></path></clipPath></defs><g clip-path="url(#a)" transform="matrix(1.33333 0 0 -1.33333 0 682.667)"><path d="M0 0c-4.437-8.73-8.195-18.164-10.613-28.072" style="stroke-width:15;stroke-linecap:round;stroke-linejoin:round;stroke-miterlimit:10;stroke-dasharray:none;stroke-opacity:1" transform="translate(113.306 240.927)" fill="none" stroke="#ffffff" stroke-width="15" stroke-linecap="round" stroke-linejoin="round" stroke-miterlimit="10" stroke-dasharray="none" stroke-opacity="" data-original="#000000" class=""></path><path d="m0 0-18.855-14.609a25.124 25.124 0 0 1-9.528-16.629l-9-74.56" style="stroke-width:15;stroke-linecap:round;stroke-linejoin:round;stroke-miterlimit:10;stroke-dasharray:none;stroke-opacity:1" transform="translate(110.36 336.196)" fill="none" stroke="#ffffff" stroke-width="15" stroke-linecap="round" stroke-linejoin="round" stroke-miterlimit="10" stroke-dasharray="none" stroke-opacity="" data-original="#000000" class=""></path><path d="m0 0-112.146 79.513c-5.763 4.086-13.763 2.604-17.68-3.276l-14.91-22.378c-3.361-5.044-2.101-11.846 2.843-15.352l114.934-81.488c5.253-3.725 12.557-2.266 15.976 3.19L3.372-16.88C6.9-11.249 5.421-3.844 0 0Z" style="stroke-width:15;stroke-linecap:round;stroke-linejoin:round;stroke-miterlimit:10;stroke-dasharray:none;stroke-opacity:1" transform="translate(154.116 53.398)" fill="none" stroke="#ffffff" stroke-width="15" stroke-linecap="round" stroke-linejoin="round" stroke-miterlimit="10" stroke-dasharray="none" stroke-opacity="" data-original="#000000" class=""></path><path d="M0 0c.02 7.907.139 15.899.496 23.969 1.137 25.679 18.523 62.583 33.969 90.645-2.433 5.459-6.393 10.711-12.831 12.47l-.45.123c-9.962 2.727-20.195-3.336-22.589-13.382l-10.632-44.594a37.662 37.662 0 0 1-.048-17.272z" style="stroke-width:15;stroke-linecap:round;stroke-linejoin:round;stroke-miterlimit:10;stroke-dasharray:none;stroke-opacity:1" transform="translate(49.277 255.968)" fill="none" stroke="#ffffff" stroke-width="15" stroke-linecap="round" stroke-linejoin="round" stroke-miterlimit="10" stroke-dasharray="none" stroke-opacity="" data-original="#000000" class=""></path><path d="M0 0c4.437 8.73 8.195 18.164 10.613 28.072" style="stroke-width:15;stroke-linecap:round;stroke-linejoin:round;stroke-miterlimit:10;stroke-dasharray:none;stroke-opacity:1" transform="translate(398.694 271.073)" fill="none" stroke="#ffffff" stroke-width="15" stroke-linecap="round" stroke-linejoin="round" stroke-miterlimit="10" stroke-dasharray="none" stroke-opacity="" data-original="#000000" class=""></path><path d="m0 0 18.855 14.609a25.124 25.124 0 0 1 9.528 16.629l9.001 74.56" style="stroke-width:15;stroke-linecap:round;stroke-linejoin:round;stroke-miterlimit:10;stroke-dasharray:none;stroke-opacity:1" transform="translate(401.64 175.804)" fill="none" stroke="#ffffff" stroke-width="15" stroke-linecap="round" stroke-linejoin="round" stroke-miterlimit="10" stroke-dasharray="none" stroke-opacity="" data-original="#000000" class=""></path><path d="M0 0c8.261 16.203 20.416 61.558 55.86 59.747 35.443-1.81 30.349-37.208 24.198-47.126-4.038-6.512-12.92-21.32-18.545-30.723a12.44 12.44 0 0 0-13.908-5.646c-11.348 3.021-31.469 6.942-48.033 2.519-8.206-2.192-13.948-9.588-14.067-18.082a10.303 10.303 0 0 1 8.007-10.19L58.491-64.37c8.63-1.975 17.63.774 23.742 7.18 9.416 9.867 23.274 26.262 33.508 46.395 0 0-1.842-30.994-2.217-47.157a10.355 10.355 0 0 0-4.029-7.986c-11.489-8.86-44.709-35.452-55.998-55.074a20.057 20.057 0 0 1 .028-20.091c3.279-5.64 10.776-7.102 15.933-3.106l49.229 38.145s-26.513-44.345-12.988-59.827l.239-.272c7.189-8.173 20.28-6.853 25.921 2.457 16.329 26.949 45.92 80.137 47.414 113.902 2.071 46.757-3.777 90.998 8.447 130.338l4.532 14.588c-1.807.303-3.578.967-5.176 2.099L74.93 176.733c-1.885 1.337-3.258 3.12-4.146 5.092-14.288-16.201-32.941-36.015-48.445-47.993C-7.338 110.905-46.694 13.74-41.942-4.111-37.19-21.963-8.261-16.204 0 0Z" style="stroke-width:15;stroke-linecap:round;stroke-linejoin:round;stroke-miterlimit:10;stroke-dasharray:none;stroke-opacity:1" transform="translate(282.953 281.868)" fill="none" stroke="#ffffff" stroke-width="15" stroke-linecap="round" stroke-linejoin="round" stroke-miterlimit="10" stroke-dasharray="none" stroke-opacity="" data-original="#000000" class=""></path><path d="M0 0c-.02-7.907-.139-15.899-.496-23.969-1.137-25.679-18.523-62.583-33.969-90.645 2.433-5.459 6.393-10.711 12.831-12.47l.45-.123c9.962-2.727 20.195 3.336 22.589 13.382l10.632 44.594a37.662 37.662 0 0 1 .048 17.272z" style="stroke-width:15;stroke-linecap:round;stroke-linejoin:round;stroke-miterlimit:10;stroke-dasharray:none;stroke-opacity:1" transform="translate(462.723 256.032)" fill="none" stroke="#ffffff" stroke-width="15" stroke-linecap="round" stroke-linejoin="round" stroke-miterlimit="10" stroke-dasharray="none" stroke-opacity="" data-original="#000000" class=""></path><path d="m0 0-42.979 30.473c-5.253 3.724-12.557 2.265-15.975-3.191L-73.311 4.371c-3.528-5.63-2.048-13.036 3.373-16.88L42.208-92.021c5.763-4.086 13.763-2.605 17.68 3.275l14.91 22.378c3.36 5.044 2.1 11.847-2.844 15.352L28.555-20.245" style="stroke-width:15;stroke-linecap:round;stroke-linejoin:round;stroke-miterlimit:10;stroke-dasharray:none;stroke-opacity:1" transform="translate(427.822 471.11)" fill="none" stroke="#ffffff" stroke-width="15" stroke-linecap="round" stroke-linejoin="round" stroke-miterlimit="10" stroke-dasharray="none" stroke-opacity="" data-original="#000000" class=""></path><path d="M0 0c10.252 25.229 16.575 48.115 14.502 55.903C9.75 73.755-19.18 67.996-27.44 51.793-35.701 35.589-47.856-9.766-83.301-7.955c-35.442 1.81-30.348 37.208-24.197 47.126 4.038 6.512 12.92 21.32 18.545 30.724a12.44 12.44 0 0 0 13.907 5.646c11.349-3.023 31.47-6.943 48.033-2.52 8.206 2.192 13.949 9.588 14.068 18.082v.001a10.304 10.304 0 0 1-8.006 10.189l-64.981 14.869c-8.63 1.975-17.63-.774-23.742-7.18-9.416-9.867-23.273-26.262-33.508-46.395 0 0 1.842 30.994 2.217 47.157a10.355 10.355 0 0 0 4.029 7.986c11.49 8.86 44.709 35.452 55.999 55.074a20.054 20.054 0 0 1-.029 20.091c-3.278 5.64-10.775 7.102-15.932 3.106l-49.229-38.145s26.513 44.345 12.987 59.828l-.238.271c-7.189 8.173-20.28 6.853-25.922-2.457-16.329-26.949-45.92-80.137-47.414-113.902-2.07-46.757 3.777-90.998-8.445-130.338-1.762-5.668-3.243-10.437-4.532-14.588 1.805-.303 3.577-.967 5.174-2.099l112.147-79.512c1.885-1.337 3.258-3.12 4.145-5.092 14.288 16.201 32.942 36.015 48.446 47.993 11.334 8.756 24.078 28.343 35.239 50.202" style="stroke-width:15;stroke-linecap:round;stroke-linejoin:round;stroke-miterlimit:10;stroke-dasharray:none;stroke-opacity:1" transform="translate(256.487 178.34)" fill="none" stroke="#ffffff" stroke-width="15" stroke-linecap="round" stroke-linejoin="round" stroke-miterlimit="10" stroke-dasharray="none" stroke-opacity="" data-original="#000000" class=""></path></g></g></svg>