<svg width="407" height="156" viewBox="0 0 407 156" fill="none" xmlns="http://www.w3.org/2000/svg">
<path d="M264.682 0C262.019 10.6716 248.499 13.4752 237.949 10.4559C227.4 7.43762 223.712 14.4448 223.097 15.954C222.483 17.4631 220.434 20.4811 217.464 20.4811C214.494 20.4811 213.777 18.0025 213.777 16.4932C213.777 14.984 214.801 13.1513 217.874 11.7502C220.947 10.3489 222.33 7.99268 222.915 4.0331C221.94 7.04547 218.433 8.92902 210.641 8.92902C200.666 8.92902 195.25 16.1931 192.975 21.7559L179.508 56.4534C178.641 58.6862 176.488 60.1259 174.209 59.859C169.498 59.307 164.118 60.0345 158.787 62.2352C146.018 67.5056 138.416 79.1556 141.807 88.2564C145.199 97.3579 158.3 100.463 171.069 95.192C183.838 89.9216 191.44 78.2712 188.048 69.1706L188.032 69.1253C186.779 65.7854 186.801 62.0662 188.09 58.7432L195.055 40.7977C195.055 40.7977 197.393 35.8764 204.016 35.8764C210.641 35.8764 212.978 41.0026 221.551 41.0026C230.123 41.0026 235.383 32.4932 235.967 28.4435C232.418 31.4763 227.91 30.3066 227.91 26.1567C227.91 24.0544 229.067 21.3794 232.816 21.3794C235.595 21.3794 236.823 23.6072 241.944 23.6072C257.923 23.6074 266.834 7.86914 264.682 0Z" fill="#0066FF"/>
<path d="M27.588 155.66C24.068 155.66 20.79 155.088 17.754 153.944C14.762 152.756 12.144 151.106 9.9 148.994C7.7 146.838 5.984 144.308 4.752 141.404C3.52 138.5 2.904 135.332 2.904 131.9C2.904 128.468 3.52 125.3 4.752 122.396C5.984 119.492 7.722 116.984 9.966 114.872C12.21 112.716 14.828 111.066 17.82 109.922C20.812 108.734 24.09 108.14 27.654 108.14C31.438 108.14 34.892 108.8 38.016 110.12C41.14 111.396 43.78 113.31 45.936 115.862L40.392 121.076C38.72 119.272 36.85 117.93 34.782 117.05C32.714 116.126 30.47 115.664 28.05 115.664C25.63 115.664 23.408 116.06 21.384 116.852C19.404 117.644 17.666 118.766 16.17 120.218C14.718 121.67 13.574 123.386 12.738 125.366C11.946 127.346 11.55 129.524 11.55 131.9C11.55 134.276 11.946 136.454 12.738 138.434C13.574 140.414 14.718 142.13 16.17 143.582C17.666 145.034 19.404 146.156 21.384 146.948C23.408 147.74 25.63 148.136 28.05 148.136C30.47 148.136 32.714 147.696 34.782 146.816C36.85 145.892 38.72 144.506 40.392 142.658L45.936 147.938C43.78 150.446 41.14 152.36 38.016 153.68C34.892 155 31.416 155.66 27.588 155.66ZM68.5776 155.462C64.6616 155.462 61.2296 154.692 58.2816 153.152C55.3776 151.568 53.1116 149.412 51.4836 146.684C49.8996 143.956 49.1076 140.854 49.1076 137.378C49.1076 133.858 49.8776 130.756 51.4176 128.072C53.0016 125.344 55.1576 123.21 57.8856 121.67C60.6576 120.13 63.8036 119.36 67.3236 119.36C70.7556 119.36 73.8136 120.108 76.4976 121.604C79.1816 123.1 81.2936 125.212 82.8336 127.94C84.3736 130.668 85.1436 133.88 85.1436 137.576C85.1436 137.928 85.1216 138.324 85.0776 138.764C85.0776 139.204 85.0556 139.622 85.0116 140.018H55.6416V134.54H80.6556L77.4216 136.256C77.4656 134.232 77.0476 132.45 76.1676 130.91C75.2876 129.37 74.0776 128.16 72.5376 127.28C71.0416 126.4 69.3036 125.96 67.3236 125.96C65.2996 125.96 63.5176 126.4 61.9776 127.28C60.4816 128.16 59.2936 129.392 58.4136 130.976C57.5776 132.516 57.1596 134.342 57.1596 136.454V137.774C57.1596 139.886 57.6436 141.756 58.6116 143.384C59.5796 145.012 60.9436 146.266 62.7036 147.146C64.4636 148.026 66.4876 148.466 68.7756 148.466C70.7556 148.466 72.5376 148.158 74.1216 147.542C75.7056 146.926 77.1136 145.958 78.3456 144.638L82.7676 149.72C81.1836 151.568 79.1816 152.998 76.7616 154.01C74.3856 154.978 71.6576 155.462 68.5776 155.462ZM94.1903 155V117.776C94.1903 114.08 95.2683 111.132 97.4243 108.932C99.6243 106.688 102.748 105.566 106.796 105.566C108.248 105.566 109.612 105.72 110.888 106.028C112.208 106.336 113.308 106.82 114.188 107.48L111.944 113.684C111.328 113.2 110.624 112.848 109.832 112.628C109.04 112.364 108.226 112.232 107.39 112.232C105.674 112.232 104.376 112.716 103.496 113.684C102.616 114.608 102.176 116.016 102.176 117.908V121.868L102.44 125.564V155H94.1903ZM88.3823 126.62V120.02H111.878V126.62H88.3823ZM133.482 155.462C129.566 155.462 126.134 154.692 123.186 153.152C120.282 151.568 118.016 149.412 116.388 146.684C114.804 143.956 114.012 140.854 114.012 137.378C114.012 133.858 114.782 130.756 116.322 128.072C117.906 125.344 120.062 123.21 122.79 121.67C125.562 120.13 128.708 119.36 132.228 119.36C135.66 119.36 138.718 120.108 141.402 121.604C144.086 123.1 146.198 125.212 147.738 127.94C149.278 130.668 150.048 133.88 150.048 137.576C150.048 137.928 150.026 138.324 149.982 138.764C149.982 139.204 149.96 139.622 149.916 140.018H120.546V134.54H145.56L142.326 136.256C142.37 134.232 141.952 132.45 141.072 130.91C140.192 129.37 138.982 128.16 137.442 127.28C135.946 126.4 134.208 125.96 132.228 125.96C130.204 125.96 128.422 126.4 126.882 127.28C125.386 128.16 124.198 129.392 123.318 130.976C122.482 132.516 122.064 134.342 122.064 136.454V137.774C122.064 139.886 122.548 141.756 123.516 143.384C124.484 145.012 125.848 146.266 127.608 147.146C129.368 148.026 131.392 148.466 133.68 148.466C135.66 148.466 137.442 148.158 139.026 147.542C140.61 146.926 142.018 145.958 143.25 144.638L147.672 149.72C146.088 151.568 144.086 152.998 141.666 154.01C139.29 154.978 136.562 155.462 133.482 155.462ZM171.239 155.462C167.367 155.462 164.375 154.472 162.263 152.492C160.151 150.468 159.095 147.498 159.095 143.582V111.968H167.345V143.384C167.345 145.056 167.763 146.354 168.599 147.278C169.479 148.202 170.689 148.664 172.229 148.664C174.077 148.664 175.617 148.18 176.849 147.212L179.159 153.086C178.191 153.878 177.003 154.472 175.595 154.868C174.187 155.264 172.735 155.462 171.239 155.462ZM153.287 126.62V120.02H176.783V126.62H153.287ZM186.737 155V108.8H193.799L213.995 142.526H210.299L230.165 108.8H237.227L237.293 155H229.175L229.109 121.538H230.825L213.929 149.72H210.101L192.941 121.538H194.921V155H186.737ZM269.638 155.66C263.302 155.66 258.33 153.878 254.722 150.314C251.158 146.75 249.376 141.602 249.376 134.87V108.8H257.956V134.54C257.956 139.292 258.968 142.746 260.992 144.902C263.06 147.058 265.964 148.136 269.704 148.136C273.444 148.136 276.326 147.058 278.35 144.902C280.374 142.746 281.386 139.292 281.386 134.54V108.8H289.834V134.87C289.834 141.602 288.03 146.75 284.422 150.314C280.858 153.878 275.93 155.66 269.638 155.66ZM316.172 155.66C312.564 155.66 309.11 155.154 305.81 154.142C302.51 153.086 299.892 151.744 297.956 150.116L300.926 143.45C302.774 144.902 305.062 146.112 307.79 147.08C310.518 148.048 313.312 148.532 316.172 148.532C318.592 148.532 320.55 148.268 322.046 147.74C323.542 147.212 324.642 146.508 325.346 145.628C326.05 144.704 326.402 143.67 326.402 142.526C326.402 141.118 325.896 139.996 324.884 139.16C323.872 138.28 322.552 137.598 320.924 137.114C319.34 136.586 317.558 136.102 315.578 135.662C313.642 135.222 311.684 134.716 309.704 134.144C307.768 133.528 305.986 132.758 304.358 131.834C302.774 130.866 301.476 129.59 300.464 128.006C299.452 126.422 298.946 124.398 298.946 121.934C298.946 119.426 299.606 117.138 300.926 115.07C302.29 112.958 304.336 111.286 307.064 110.054C309.836 108.778 313.334 108.14 317.558 108.14C320.33 108.14 323.08 108.492 325.808 109.196C328.536 109.9 330.912 110.912 332.936 112.232L330.23 118.898C328.162 117.666 326.028 116.764 323.828 116.192C321.628 115.576 319.516 115.268 317.492 115.268C315.116 115.268 313.18 115.554 311.684 116.126C310.232 116.698 309.154 117.446 308.45 118.37C307.79 119.294 307.46 120.35 307.46 121.538C307.46 122.946 307.944 124.09 308.912 124.97C309.924 125.806 311.222 126.466 312.806 126.95C314.434 127.434 316.238 127.918 318.218 128.402C320.198 128.842 322.156 129.348 324.092 129.92C326.072 130.492 327.854 131.24 329.438 132.164C331.066 133.088 332.364 134.342 333.332 135.926C334.344 137.51 334.85 139.512 334.85 141.932C334.85 144.396 334.168 146.684 332.804 148.796C331.484 150.864 329.438 152.536 326.666 153.812C323.894 155.044 320.396 155.66 316.172 155.66ZM343.358 155V108.8H351.938V155H343.358ZM385.818 155.66C382.298 155.66 379.02 155.088 375.984 153.944C372.992 152.756 370.374 151.106 368.13 148.994C365.93 146.838 364.214 144.308 362.982 141.404C361.75 138.5 361.134 135.332 361.134 131.9C361.134 128.468 361.75 125.3 362.982 122.396C364.214 119.492 365.952 116.984 368.196 114.872C370.44 112.716 373.058 111.066 376.05 109.922C379.042 108.734 382.32 108.14 385.884 108.14C389.668 108.14 393.122 108.8 396.246 110.12C399.37 111.396 402.01 113.31 404.166 115.862L398.622 121.076C396.95 119.272 395.08 117.93 393.012 117.05C390.944 116.126 388.7 115.664 386.28 115.664C383.86 115.664 381.638 116.06 379.614 116.852C377.634 117.644 375.896 118.766 374.4 120.218C372.948 121.67 371.804 123.386 370.968 125.366C370.176 127.346 369.78 129.524 369.78 131.9C369.78 134.276 370.176 136.454 370.968 138.434C371.804 140.414 372.948 142.13 374.4 143.582C375.896 145.034 377.634 146.156 379.614 146.948C381.638 147.74 383.86 148.136 386.28 148.136C388.7 148.136 390.944 147.696 393.012 146.816C395.08 145.892 396.95 144.506 398.622 142.658L404.166 147.938C402.01 150.446 399.37 152.36 396.246 153.68C393.122 155 389.646 155.66 385.818 155.66Z" fill="black"/>
</svg>
