<svg width="611" height="180" viewBox="0 0 611 180" fill="none" xmlns="http://www.w3.org/2000/svg">
<rect width="180" height="180" rx="38" fill="#0066FF"/>
<path d="M151.682 41C149.019 51.6716 135.499 54.4752 124.949 51.4559C114.4 48.4376 110.712 55.4448 110.097 56.954C109.483 58.4631 107.434 61.4811 104.464 61.4811C101.494 61.4811 100.777 59.0025 100.777 57.4932C100.777 55.984 101.801 54.1513 104.874 52.7502C107.947 51.3489 109.33 48.9927 109.915 45.0331C108.94 48.0455 105.433 49.929 97.6411 49.929C87.6659 49.929 82.2496 57.1931 79.9746 62.7559L66.5082 97.4534C65.6408 99.6862 63.4884 101.126 61.2095 100.859C56.4977 100.307 51.118 101.035 45.7874 103.235C33.0179 108.506 25.4161 120.156 28.8075 129.256C32.1989 138.358 45.3001 141.463 58.0686 136.192C70.8379 130.922 78.4399 119.271 75.0483 110.171L75.0315 110.125C73.7794 106.785 73.8008 103.066 75.0902 99.7432L82.0549 81.7977C82.0549 81.7977 84.3927 76.8764 91.0164 76.8764C97.6411 76.8764 99.9785 82.0026 108.551 82.0026C117.123 82.0026 122.383 73.4932 122.967 69.4435C119.418 72.4763 114.91 71.3066 114.91 67.1567C114.91 65.0544 116.067 62.3794 119.816 62.3794C122.595 62.3794 123.823 64.6072 128.944 64.6072C144.923 64.6074 153.834 48.8691 151.682 41Z" fill="white"/>
<path d="M231.588 114.66C228.068 114.66 224.79 114.088 221.754 112.944C218.762 111.756 216.144 110.106 213.9 107.994C211.7 105.838 209.984 103.308 208.752 100.404C207.52 97.5 206.904 94.332 206.904 90.9C206.904 87.468 207.52 84.3 208.752 81.396C209.984 78.492 211.722 75.984 213.966 73.872C216.21 71.716 218.828 70.066 221.82 68.922C224.812 67.734 228.09 67.14 231.654 67.14C235.438 67.14 238.892 67.8 242.016 69.12C245.14 70.396 247.78 72.31 249.936 74.862L244.392 80.076C242.72 78.272 240.85 76.93 238.782 76.05C236.714 75.126 234.47 74.664 232.05 74.664C229.63 74.664 227.408 75.06 225.384 75.852C223.404 76.644 221.666 77.766 220.17 79.218C218.718 80.67 217.574 82.386 216.738 84.366C215.946 86.346 215.55 88.524 215.55 90.9C215.55 93.276 215.946 95.454 216.738 97.434C217.574 99.414 218.718 101.13 220.17 102.582C221.666 104.034 223.404 105.156 225.384 105.948C227.408 106.74 229.63 107.136 232.05 107.136C234.47 107.136 236.714 106.696 238.782 105.816C240.85 104.892 242.72 103.506 244.392 101.658L249.936 106.938C247.78 109.446 245.14 111.36 242.016 112.68C238.892 114 235.416 114.66 231.588 114.66ZM272.578 114.462C268.662 114.462 265.23 113.692 262.282 112.152C259.378 110.568 257.112 108.412 255.484 105.684C253.9 102.956 253.108 99.854 253.108 96.378C253.108 92.858 253.878 89.756 255.418 87.072C257.002 84.344 259.158 82.21 261.886 80.67C264.658 79.13 267.804 78.36 271.324 78.36C274.756 78.36 277.814 79.108 280.498 80.604C283.182 82.1 285.294 84.212 286.834 86.94C288.374 89.668 289.144 92.88 289.144 96.576C289.144 96.928 289.122 97.324 289.078 97.764C289.078 98.204 289.056 98.622 289.012 99.018H259.642V93.54H284.656L281.422 95.256C281.466 93.232 281.048 91.45 280.168 89.91C279.288 88.37 278.078 87.16 276.538 86.28C275.042 85.4 273.304 84.96 271.324 84.96C269.3 84.96 267.518 85.4 265.978 86.28C264.482 87.16 263.294 88.392 262.414 89.976C261.578 91.516 261.16 93.342 261.16 95.454V96.774C261.16 98.886 261.644 100.756 262.612 102.384C263.58 104.012 264.944 105.266 266.704 106.146C268.464 107.026 270.488 107.466 272.776 107.466C274.756 107.466 276.538 107.158 278.122 106.542C279.706 105.926 281.114 104.958 282.346 103.638L286.768 108.72C285.184 110.568 283.182 111.998 280.762 113.01C278.386 113.978 275.658 114.462 272.578 114.462ZM298.19 114V76.776C298.19 73.08 299.268 70.132 301.424 67.932C303.624 65.688 306.748 64.566 310.796 64.566C312.248 64.566 313.612 64.72 314.888 65.028C316.208 65.336 317.308 65.82 318.188 66.48L315.944 72.684C315.328 72.2 314.624 71.848 313.832 71.628C313.04 71.364 312.226 71.232 311.39 71.232C309.674 71.232 308.376 71.716 307.496 72.684C306.616 73.608 306.176 75.016 306.176 76.908V80.868L306.44 84.564V114H298.19ZM292.382 85.62V79.02H315.878V85.62H292.382ZM337.482 114.462C333.566 114.462 330.134 113.692 327.186 112.152C324.282 110.568 322.016 108.412 320.388 105.684C318.804 102.956 318.012 99.854 318.012 96.378C318.012 92.858 318.782 89.756 320.322 87.072C321.906 84.344 324.062 82.21 326.79 80.67C329.562 79.13 332.708 78.36 336.228 78.36C339.66 78.36 342.718 79.108 345.402 80.604C348.086 82.1 350.198 84.212 351.738 86.94C353.278 89.668 354.048 92.88 354.048 96.576C354.048 96.928 354.026 97.324 353.982 97.764C353.982 98.204 353.96 98.622 353.916 99.018H324.546V93.54H349.56L346.326 95.256C346.37 93.232 345.952 91.45 345.072 89.91C344.192 88.37 342.982 87.16 341.442 86.28C339.946 85.4 338.208 84.96 336.228 84.96C334.204 84.96 332.422 85.4 330.882 86.28C329.386 87.16 328.198 88.392 327.318 89.976C326.482 91.516 326.064 93.342 326.064 95.454V96.774C326.064 98.886 326.548 100.756 327.516 102.384C328.484 104.012 329.848 105.266 331.608 106.146C333.368 107.026 335.392 107.466 337.68 107.466C339.66 107.466 341.442 107.158 343.026 106.542C344.61 105.926 346.018 104.958 347.25 103.638L351.672 108.72C350.088 110.568 348.086 111.998 345.666 113.01C343.29 113.978 340.562 114.462 337.482 114.462ZM375.239 114.462C371.367 114.462 368.375 113.472 366.263 111.492C364.151 109.468 363.095 106.498 363.095 102.582V70.968H371.345V102.384C371.345 104.056 371.763 105.354 372.599 106.278C373.479 107.202 374.689 107.664 376.229 107.664C378.077 107.664 379.617 107.18 380.849 106.212L383.159 112.086C382.191 112.878 381.003 113.472 379.595 113.868C378.187 114.264 376.735 114.462 375.239 114.462ZM357.287 85.62V79.02H380.783V85.62H357.287Z" fill="white"/>
<path d="M390.737 114V67.8H397.799L417.995 101.526H414.299L434.165 67.8H441.227L441.293 114H433.175L433.109 80.538H434.825L417.929 108.72H414.101L396.941 80.538H398.921V114H390.737ZM473.638 114.66C467.302 114.66 462.33 112.878 458.722 109.314C455.158 105.75 453.376 100.602 453.376 93.87V67.8H461.956V93.54C461.956 98.292 462.968 101.746 464.992 103.902C467.06 106.058 469.964 107.136 473.704 107.136C477.444 107.136 480.326 106.058 482.35 103.902C484.374 101.746 485.386 98.292 485.386 93.54V67.8H493.834V93.87C493.834 100.602 492.03 105.75 488.422 109.314C484.858 112.878 479.93 114.66 473.638 114.66ZM520.172 114.66C516.564 114.66 513.11 114.154 509.81 113.142C506.51 112.086 503.892 110.744 501.956 109.116L504.926 102.45C506.774 103.902 509.062 105.112 511.79 106.08C514.518 107.048 517.312 107.532 520.172 107.532C522.592 107.532 524.55 107.268 526.046 106.74C527.542 106.212 528.642 105.508 529.346 104.628C530.05 103.704 530.402 102.67 530.402 101.526C530.402 100.118 529.896 98.996 528.884 98.16C527.872 97.28 526.552 96.598 524.924 96.114C523.34 95.586 521.558 95.102 519.578 94.662C517.642 94.222 515.684 93.716 513.704 93.144C511.768 92.528 509.986 91.758 508.358 90.834C506.774 89.866 505.476 88.59 504.464 87.006C503.452 85.422 502.946 83.398 502.946 80.934C502.946 78.426 503.606 76.138 504.926 74.07C506.29 71.958 508.336 70.286 511.064 69.054C513.836 67.778 517.334 67.14 521.558 67.14C524.33 67.14 527.08 67.492 529.808 68.196C532.536 68.9 534.912 69.912 536.936 71.232L534.23 77.898C532.162 76.666 530.028 75.764 527.828 75.192C525.628 74.576 523.516 74.268 521.492 74.268C519.116 74.268 517.18 74.554 515.684 75.126C514.232 75.698 513.154 76.446 512.45 77.37C511.79 78.294 511.46 79.35 511.46 80.538C511.46 81.946 511.944 83.09 512.912 83.97C513.924 84.806 515.222 85.466 516.806 85.95C518.434 86.434 520.238 86.918 522.218 87.402C524.198 87.842 526.156 88.348 528.092 88.92C530.072 89.492 531.854 90.24 533.438 91.164C535.066 92.088 536.364 93.342 537.332 94.926C538.344 96.51 538.85 98.512 538.85 100.932C538.85 103.396 538.168 105.684 536.804 107.796C535.484 109.864 533.438 111.536 530.666 112.812C527.894 114.044 524.396 114.66 520.172 114.66ZM547.358 114V67.8H555.938V114H547.358ZM589.818 114.66C586.298 114.66 583.02 114.088 579.984 112.944C576.992 111.756 574.374 110.106 572.13 107.994C569.93 105.838 568.214 103.308 566.982 100.404C565.75 97.5 565.134 94.332 565.134 90.9C565.134 87.468 565.75 84.3 566.982 81.396C568.214 78.492 569.952 75.984 572.196 73.872C574.44 71.716 577.058 70.066 580.05 68.922C583.042 67.734 586.32 67.14 589.884 67.14C593.668 67.14 597.122 67.8 600.246 69.12C603.37 70.396 606.01 72.31 608.166 74.862L602.622 80.076C600.95 78.272 599.08 76.93 597.012 76.05C594.944 75.126 592.7 74.664 590.28 74.664C587.86 74.664 585.638 75.06 583.614 75.852C581.634 76.644 579.896 77.766 578.4 79.218C576.948 80.67 575.804 82.386 574.968 84.366C574.176 86.346 573.78 88.524 573.78 90.9C573.78 93.276 574.176 95.454 574.968 97.434C575.804 99.414 576.948 101.13 578.4 102.582C579.896 104.034 581.634 105.156 583.614 105.948C585.638 106.74 587.86 107.136 590.28 107.136C592.7 107.136 594.944 106.696 597.012 105.816C599.08 104.892 600.95 103.506 602.622 101.658L608.166 106.938C606.01 109.446 603.37 111.36 600.246 112.68C597.122 114 593.646 114.66 589.818 114.66Z" fill="#0066FF"/>
</svg>
